<?xml version="1.0" encoding="UTF-8" standalone="no"?>
<!DOCTYPE svg PUBLIC "-//W3C//DTD SVG 1.1//EN"
 "http://www.w3.org/Graphics/SVG/1.1/DTD/svg11.dtd">
<!-- Generated by graphviz version 2.40.1 (20161225.0304)
 -->
<!-- Title: dependencies Pages: 1 -->
<svg width="1439pt" height="284pt"
 viewBox="0.00 0.00 1439.00 284.00" xmlns="http://www.w3.org/2000/svg" xmlns:xlink="http://www.w3.org/1999/xlink">
<g id="graph0" class="graph" transform="scale(1 1) rotate(0) translate(4 280)">
<title>dependencies</title>
<polygon fill="#ffffff" stroke="transparent" points="-4,4 -4,-280 1435,-280 1435,4 -4,4"/>
<text text-anchor="start" x="694.5091" y="-42.4" font-family="sans-serif" font-weight="bold" font-size="14.00" fill="#000000">Legend</text>
<polygon fill="#ffffb3" stroke="transparent" points="481.5,-10 481.5,-30 501.5,-30 501.5,-10 481.5,-10"/>
<text text-anchor="start" x="505.129" y="-15.4" font-family="sans-serif" font-size="14.00" fill="#000000"> &#160;Declarations</text>
<polygon fill="#8dd3c7" stroke="transparent" points="594.5,-10 594.5,-30 614.5,-30 614.5,-10 594.5,-10"/>
<text text-anchor="start" x="618.2251" y="-15.4" font-family="sans-serif" font-size="14.00" fill="#000000"> &#160;Module</text>
<polygon fill="#80b1d3" stroke="transparent" points="680.5,-10 680.5,-30 700.5,-30 700.5,-10 680.5,-10"/>
<text text-anchor="start" x="704.2812" y="-15.4" font-family="sans-serif" font-size="14.00" fill="#000000"> &#160;Bootstrap</text>
<polygon fill="#fdb462" stroke="transparent" points="777.5,-10 777.5,-30 797.5,-30 797.5,-10 777.5,-10"/>
<text text-anchor="start" x="801.1732" y="-15.4" font-family="sans-serif" font-size="14.00" fill="#000000"> &#160;Providers</text>
<polygon fill="#fb8072" stroke="transparent" points="873.5,-10 873.5,-30 893.5,-30 893.5,-10 873.5,-10"/>
<text text-anchor="start" x="897.2258" y="-15.4" font-family="sans-serif" font-size="14.00" fill="#000000"> &#160;Exports</text>
<g id="clust1" class="cluster">
<title>cluster_DynamicAnimationsModule</title>
<polygon fill="none" stroke="#000000" stroke-dasharray="1,5" points="8,-70 8,-268 1423,-268 1423,-70 8,-70"/>
</g>
<g id="clust2" class="cluster">
<title>cluster_DynamicAnimationsModule_declarations</title>
<polygon fill="none" stroke="#000000" points="1094,-78 1094,-130 1415,-130 1415,-78 1094,-78"/>
</g>
<g id="clust6" class="cluster">
<title>cluster_DynamicAnimationsModule_exports</title>
<polygon fill="none" stroke="#000000" points="587,-208 587,-260 915,-260 915,-208 587,-208"/>
</g>
<g id="clust8" class="cluster">
<title>cluster_DynamicAnimationsModule_providers</title>
<polygon fill="none" stroke="#000000" points="16,-78 16,-130 1086,-130 1086,-78 16,-78"/>
</g>
<!-- DynamicAnimationsDirective -->
<g id="node1" class="node">
<title>DynamicAnimationsDirective</title>
<polygon fill="#ffffb3" stroke="#000000" points="1407.2282,-122 1222.7718,-122 1222.7718,-86 1407.2282,-86 1407.2282,-122"/>
<text text-anchor="middle" x="1315" y="-99.8" font-family="Times,serif" font-size="14.00" fill="#000000">DynamicAnimationsDirective</text>
</g>
<!-- DynamicAnimationsModule -->
<g id="node3" class="node">
<title>DynamicAnimationsModule</title>
<polygon fill="#8dd3c7" stroke="#000000" points="819.1951,-187 816.1951,-191 795.1951,-191 792.1951,-187 642.8049,-187 642.8049,-151 819.1951,-151 819.1951,-187"/>
<text text-anchor="middle" x="731" y="-164.8" font-family="Times,serif" font-size="14.00" fill="#000000">DynamicAnimationsModule</text>
</g>
<!-- DynamicAnimationsDirective&#45;&gt;DynamicAnimationsModule -->
<g id="edge1" class="edge">
<title>DynamicAnimationsDirective&#45;&gt;DynamicAnimationsModule</title>
<path fill="none" stroke="#000000" d="M1315,-122.2921C1315,-144.2057 1315,-178 1315,-178 1315,-178 829.3798,-178 829.3798,-178"/>
<polygon fill="#000000" stroke="#000000" points="829.3798,-174.5001 819.3798,-178 829.3798,-181.5001 829.3798,-174.5001"/>
</g>
<!-- LeaveDirective -->
<g id="node2" class="node">
<title>LeaveDirective</title>
<polygon fill="#ffffb3" stroke="#000000" points="1204.2796,-122 1101.7204,-122 1101.7204,-86 1204.2796,-86 1204.2796,-122"/>
<text text-anchor="middle" x="1153" y="-99.8" font-family="Times,serif" font-size="14.00" fill="#000000">LeaveDirective</text>
</g>
<!-- LeaveDirective&#45;&gt;DynamicAnimationsModule -->
<g id="edge2" class="edge">
<title>LeaveDirective&#45;&gt;DynamicAnimationsModule</title>
<path fill="none" stroke="#000000" d="M1153,-122.1061C1153,-141.3391 1153,-169 1153,-169 1153,-169 829.2081,-169 829.2081,-169"/>
<polygon fill="#000000" stroke="#000000" points="829.2081,-165.5001 819.2081,-169 829.208,-172.5001 829.2081,-165.5001"/>
</g>
<!-- DynamicAnimationsDirective  -->
<g id="node4" class="node">
<title>DynamicAnimationsDirective </title>
<polygon fill="#fb8072" stroke="#000000" points="907.2281,-252 718.7719,-252 718.7719,-216 907.2281,-216 907.2281,-252"/>
<text text-anchor="middle" x="813" y="-229.8" font-family="Times,serif" font-size="14.00" fill="#000000">DynamicAnimationsDirective </text>
</g>
<!-- DynamicAnimationsModule&#45;&gt;DynamicAnimationsDirective  -->
<g id="edge3" class="edge">
<title>DynamicAnimationsModule&#45;&gt;DynamicAnimationsDirective </title>
<path fill="none" stroke="#000000" stroke-dasharray="5,2" d="M768.9917,-187.1061C768.9917,-187.1061 768.9917,-205.991 768.9917,-205.991"/>
<polygon fill="#000000" stroke="#000000" points="765.4918,-205.9909 768.9917,-215.991 772.4918,-205.991 765.4918,-205.9909"/>
</g>
<!-- LeaveDirective  -->
<g id="node5" class="node">
<title>LeaveDirective </title>
<polygon fill="#fb8072" stroke="#000000" points="700.7794,-252 595.2206,-252 595.2206,-216 700.7794,-216 700.7794,-252"/>
<text text-anchor="middle" x="648" y="-229.8" font-family="Times,serif" font-size="14.00" fill="#000000">LeaveDirective </text>
</g>
<!-- DynamicAnimationsModule&#45;&gt;LeaveDirective  -->
<g id="edge4" class="edge">
<title>DynamicAnimationsModule&#45;&gt;LeaveDirective </title>
<path fill="none" stroke="#000000" stroke-dasharray="5,2" d="M671.8961,-187.1061C671.8961,-187.1061 671.8961,-205.991 671.8961,-205.991"/>
<polygon fill="#000000" stroke="#000000" points="668.3961,-205.9909 671.8961,-215.991 675.3961,-205.991 668.3961,-205.9909"/>
</g>
<!-- AnimationStatesService -->
<g id="node6" class="node">
<title>AnimationStatesService</title>
<ellipse fill="#fdb462" stroke="#000000" cx="974" cy="-104" rx="104.2265" ry="18"/>
<text text-anchor="middle" x="974" y="-99.8" font-family="Times,serif" font-size="14.00" fill="#000000">AnimationStatesService</text>
</g>
<!-- AnimationStatesService&#45;&gt;DynamicAnimationsModule -->
<g id="edge5" class="edge">
<title>AnimationStatesService&#45;&gt;DynamicAnimationsModule</title>
<path fill="none" stroke="#000000" d="M888.3754,-114.5332C888.3754,-130.755 888.3754,-160 888.3754,-160 888.3754,-160 829.3483,-160 829.3483,-160"/>
<polygon fill="#000000" stroke="#000000" points="829.3483,-156.5001 819.3483,-160 829.3482,-163.5001 829.3483,-156.5001"/>
</g>
<!-- DynamicAnimationsService -->
<g id="node7" class="node">
<title>DynamicAnimationsService</title>
<ellipse fill="#fdb462" stroke="#000000" cx="731" cy="-104" rx="120.4033" ry="18"/>
<text text-anchor="middle" x="731" y="-99.8" font-family="Times,serif" font-size="14.00" fill="#000000">DynamicAnimationsService</text>
</g>
<!-- DynamicAnimationsService&#45;&gt;DynamicAnimationsModule -->
<g id="edge6" class="edge">
<title>DynamicAnimationsService&#45;&gt;DynamicAnimationsModule</title>
<path fill="none" stroke="#000000" d="M731,-122.1061C731,-122.1061 731,-140.991 731,-140.991"/>
<polygon fill="#000000" stroke="#000000" points="727.5001,-140.9909 731,-150.991 734.5001,-140.991 727.5001,-140.9909"/>
</g>
<!-- NgStateService -->
<g id="node8" class="node">
<title>NgStateService</title>
<ellipse fill="#fdb462" stroke="#000000" cx="521" cy="-104" rx="71.2017" ry="18"/>
<text text-anchor="middle" x="521" y="-99.8" font-family="Times,serif" font-size="14.00" fill="#000000">NgStateService</text>
</g>
<!-- NgStateService&#45;&gt;DynamicAnimationsModule -->
<g id="edge7" class="edge">
<title>NgStateService&#45;&gt;DynamicAnimationsModule</title>
<path fill="none" stroke="#000000" d="M521,-122.027C521,-138.3976 521,-160 521,-160 521,-160 632.8539,-160 632.8539,-160"/>
<polygon fill="#000000" stroke="#000000" points="632.8539,-163.5001 642.8539,-160 632.8538,-156.5001 632.8539,-163.5001"/>
</g>
<!-- NgTransitionService -->
<g id="node9" class="node">
<title>NgTransitionService</title>
<ellipse fill="#fdb462" stroke="#000000" cx="340" cy="-104" rx="91.4693" ry="18"/>
<text text-anchor="middle" x="340" y="-99.8" font-family="Times,serif" font-size="14.00" fill="#000000">NgTransitionService</text>
</g>
<!-- NgTransitionService&#45;&gt;DynamicAnimationsModule -->
<g id="edge8" class="edge">
<title>NgTransitionService&#45;&gt;DynamicAnimationsModule</title>
<path fill="none" stroke="#000000" d="M340,-122.1061C340,-141.3391 340,-169 340,-169 340,-169 632.7644,-169 632.7644,-169"/>
<polygon fill="#000000" stroke="#000000" points="632.7645,-172.5001 642.7644,-169 632.7644,-165.5001 632.7645,-172.5001"/>
</g>
<!-- StateCssMapperService -->
<g id="node10" class="node">
<title>StateCssMapperService</title>
<ellipse fill="#fdb462" stroke="#000000" cx="127" cy="-104" rx="103.0636" ry="18"/>
<text text-anchor="middle" x="127" y="-99.8" font-family="Times,serif" font-size="14.00" fill="#000000">StateCssMapperService</text>
</g>
<!-- StateCssMapperService&#45;&gt;DynamicAnimationsModule -->
<g id="edge9" class="edge">
<title>StateCssMapperService&#45;&gt;DynamicAnimationsModule</title>
<path fill="none" stroke="#000000" d="M127,-122.2921C127,-144.2057 127,-178 127,-178 127,-178 632.85,-178 632.85,-178"/>
<polygon fill="#000000" stroke="#000000" points="632.85,-181.5001 642.85,-178 632.85,-174.5001 632.85,-181.5001"/>
</g>
</g>
</svg>
