<?xml version="1.0" encoding="UTF-8" standalone="no"?>
<!DOCTYPE svg PUBLIC "-//W3C//DTD SVG 1.1//EN"
 "http://www.w3.org/Graphics/SVG/1.1/DTD/svg11.dtd">
<!-- Generated by graphviz version 2.40.1 (20161225.0304)
 -->
<!-- Title: dependencies Pages: 1 -->
<svg width="578pt" height="284pt"
 viewBox="0.00 0.00 578.00 284.00" xmlns="http://www.w3.org/2000/svg" xmlns:xlink="http://www.w3.org/1999/xlink">
<g id="graph0" class="graph" transform="scale(1 1) rotate(0) translate(4 280)">
<title>dependencies</title>
<polygon fill="#ffffff" stroke="transparent" points="-4,4 -4,-280 574,-280 574,4 -4,4"/>
<text text-anchor="start" x="264.0091" y="-42.4" font-family="sans-serif" font-weight="bold" font-size="14.00" fill="#000000">Legend</text>
<polygon fill="#ffffb3" stroke="transparent" points="51,-10 51,-30 71,-30 71,-10 51,-10"/>
<text text-anchor="start" x="74.629" y="-15.4" font-family="sans-serif" font-size="14.00" fill="#000000"> &#160;Declarations</text>
<polygon fill="#8dd3c7" stroke="transparent" points="164,-10 164,-30 184,-30 184,-10 164,-10"/>
<text text-anchor="start" x="187.7251" y="-15.4" font-family="sans-serif" font-size="14.00" fill="#000000"> &#160;Module</text>
<polygon fill="#80b1d3" stroke="transparent" points="250,-10 250,-30 270,-30 270,-10 250,-10"/>
<text text-anchor="start" x="273.7812" y="-15.4" font-family="sans-serif" font-size="14.00" fill="#000000"> &#160;Bootstrap</text>
<polygon fill="#fdb462" stroke="transparent" points="347,-10 347,-30 367,-30 367,-10 347,-10"/>
<text text-anchor="start" x="370.6732" y="-15.4" font-family="sans-serif" font-size="14.00" fill="#000000"> &#160;Providers</text>
<polygon fill="#fb8072" stroke="transparent" points="443,-10 443,-30 463,-30 463,-10 443,-10"/>
<text text-anchor="start" x="466.7258" y="-15.4" font-family="sans-serif" font-size="14.00" fill="#000000"> &#160;Exports</text>
<g id="clust1" class="cluster">
<title>cluster_DynamicComponentsModule</title>
<polygon fill="none" stroke="#000000" stroke-dasharray="1,5" points="8,-70 8,-268 562,-268 562,-70 8,-70"/>
</g>
<g id="clust2" class="cluster">
<title>cluster_DynamicComponentsModule_declarations</title>
<polygon fill="none" stroke="#000000" points="354,-78 354,-130 554,-130 554,-78 354,-78"/>
</g>
<g id="clust5" class="cluster">
<title>cluster_DynamicComponentsModule_exports</title>
<polygon fill="none" stroke="#000000" points="214,-208 214,-260 418,-260 418,-208 214,-208"/>
</g>
<g id="clust7" class="cluster">
<title>cluster_DynamicComponentsModule_providers</title>
<polygon fill="none" stroke="#000000" points="16,-78 16,-130 346,-130 346,-78 16,-78"/>
</g>
<!-- DynamicComponentDirective -->
<g id="node1" class="node">
<title>DynamicComponentDirective</title>
<polygon fill="#ffffb3" stroke="#000000" points="546.2324,-122 361.7676,-122 361.7676,-86 546.2324,-86 546.2324,-122"/>
<text text-anchor="middle" x="454" y="-99.8" font-family="Times,serif" font-size="14.00" fill="#000000">DynamicComponentDirective</text>
</g>
<!-- DynamicComponentsModule -->
<g id="node2" class="node">
<title>DynamicComponentsModule</title>
<polygon fill="#8dd3c7" stroke="#000000" points="406.6441,-187 403.6441,-191 382.6441,-191 379.6441,-187 225.3559,-187 225.3559,-151 406.6441,-151 406.6441,-187"/>
<text text-anchor="middle" x="316" y="-164.8" font-family="Times,serif" font-size="14.00" fill="#000000">DynamicComponentsModule</text>
</g>
<!-- DynamicComponentDirective&#45;&gt;DynamicComponentsModule -->
<g id="edge1" class="edge">
<title>DynamicComponentDirective&#45;&gt;DynamicComponentsModule</title>
<path fill="none" stroke="#000000" d="M384.2279,-122.1061C384.2279,-122.1061 384.2279,-140.991 384.2279,-140.991"/>
<polygon fill="#000000" stroke="#000000" points="380.728,-140.9909 384.2279,-150.991 387.728,-140.991 380.728,-140.9909"/>
</g>
<!-- DynamicComponentDirective  -->
<g id="node3" class="node">
<title>DynamicComponentDirective </title>
<polygon fill="#fb8072" stroke="#000000" points="410.2323,-252 221.7677,-252 221.7677,-216 410.2323,-216 410.2323,-252"/>
<text text-anchor="middle" x="316" y="-229.8" font-family="Times,serif" font-size="14.00" fill="#000000">DynamicComponentDirective </text>
</g>
<!-- DynamicComponentsModule&#45;&gt;DynamicComponentDirective  -->
<g id="edge2" class="edge">
<title>DynamicComponentsModule&#45;&gt;DynamicComponentDirective </title>
<path fill="none" stroke="#000000" stroke-dasharray="5,2" d="M316,-187.1061C316,-187.1061 316,-205.991 316,-205.991"/>
<polygon fill="#000000" stroke="#000000" points="312.5001,-205.9909 316,-215.991 319.5001,-205.991 312.5001,-205.9909"/>
</g>
<!-- DynamicComponentSerializerService -->
<g id="node4" class="node">
<title>DynamicComponentSerializerService</title>
<ellipse fill="#fdb462" stroke="#000000" cx="181" cy="-104" rx="157.4006" ry="18"/>
<text text-anchor="middle" x="181" y="-99.8" font-family="Times,serif" font-size="14.00" fill="#000000">DynamicComponentSerializerService</text>
</g>
<!-- DynamicComponentSerializerService&#45;&gt;DynamicComponentsModule -->
<g id="edge3" class="edge">
<title>DynamicComponentSerializerService&#45;&gt;DynamicComponentsModule</title>
<path fill="none" stroke="#000000" d="M281.8142,-118.104C281.8142,-118.104 281.8142,-140.7209 281.8142,-140.7209"/>
<polygon fill="#000000" stroke="#000000" points="278.3143,-140.7209 281.8142,-150.7209 285.3143,-140.7209 278.3143,-140.7209"/>
</g>
</g>
</svg>
