<?xml version="1.0" encoding="UTF-8" standalone="no"?>
<!DOCTYPE svg PUBLIC "-//W3C//DTD SVG 1.1//EN"
 "http://www.w3.org/Graphics/SVG/1.1/DTD/svg11.dtd">
<!-- Generated by graphviz version 2.40.1 (20161225.0304)
 -->
<!-- Title: dependencies Pages: 1 -->
<svg width="600pt" height="284pt"
 viewBox="0.00 0.00 600.00 284.00" xmlns="http://www.w3.org/2000/svg" xmlns:xlink="http://www.w3.org/1999/xlink">
<g id="graph0" class="graph" transform="scale(1 1) rotate(0) translate(4 280)">
<title>dependencies</title>
<polygon fill="#ffffff" stroke="transparent" points="-4,4 -4,-280 596,-280 596,4 -4,4"/>
<text text-anchor="start" x="275.0091" y="-42.4" font-family="sans-serif" font-weight="bold" font-size="14.00" fill="#000000">Legend</text>
<polygon fill="#ffffb3" stroke="transparent" points="62,-10 62,-30 82,-30 82,-10 62,-10"/>
<text text-anchor="start" x="85.629" y="-15.4" font-family="sans-serif" font-size="14.00" fill="#000000"> &#160;Declarations</text>
<polygon fill="#8dd3c7" stroke="transparent" points="175,-10 175,-30 195,-30 195,-10 175,-10"/>
<text text-anchor="start" x="198.7251" y="-15.4" font-family="sans-serif" font-size="14.00" fill="#000000"> &#160;Module</text>
<polygon fill="#80b1d3" stroke="transparent" points="261,-10 261,-30 281,-30 281,-10 261,-10"/>
<text text-anchor="start" x="284.7812" y="-15.4" font-family="sans-serif" font-size="14.00" fill="#000000"> &#160;Bootstrap</text>
<polygon fill="#fdb462" stroke="transparent" points="358,-10 358,-30 378,-30 378,-10 358,-10"/>
<text text-anchor="start" x="381.6732" y="-15.4" font-family="sans-serif" font-size="14.00" fill="#000000"> &#160;Providers</text>
<polygon fill="#fb8072" stroke="transparent" points="454,-10 454,-30 474,-30 474,-10 454,-10"/>
<text text-anchor="start" x="477.7258" y="-15.4" font-family="sans-serif" font-size="14.00" fill="#000000"> &#160;Exports</text>
<g id="clust1" class="cluster">
<title>cluster_ContentConductorModule</title>
<polygon fill="none" stroke="#000000" stroke-dasharray="1,5" points="8,-70 8,-268 584,-268 584,-70 8,-70"/>
</g>
<g id="clust2" class="cluster">
<title>cluster_ContentConductorModule_declarations</title>
<polygon fill="none" stroke="#000000" points="262,-78 262,-130 576,-130 576,-78 262,-78"/>
</g>
<g id="clust6" class="cluster">
<title>cluster_ContentConductorModule_exports</title>
<polygon fill="none" stroke="#000000" points="176,-208 176,-260 498,-260 498,-208 176,-208"/>
</g>
<g id="clust8" class="cluster">
<title>cluster_ContentConductorModule_providers</title>
<polygon fill="none" stroke="#000000" points="16,-78 16,-130 254,-130 254,-78 16,-78"/>
</g>
<!-- ContentContainerDirective -->
<g id="node1" class="node">
<title>ContentContainerDirective</title>
<polygon fill="#ffffb3" stroke="#000000" points="567.6232,-122 400.3768,-122 400.3768,-86 567.6232,-86 567.6232,-122"/>
<text text-anchor="middle" x="484" y="-99.8" font-family="Times,serif" font-size="14.00" fill="#000000">ContentContainerDirective</text>
</g>
<!-- ContentConductorModule -->
<g id="node3" class="node">
<title>ContentConductorModule</title>
<polygon fill="#8dd3c7" stroke="#000000" points="407.4846,-187 404.4846,-191 383.4846,-191 380.4846,-187 244.5154,-187 244.5154,-151 407.4846,-151 407.4846,-187"/>
<text text-anchor="middle" x="326" y="-164.8" font-family="Times,serif" font-size="14.00" fill="#000000">ContentConductorModule</text>
</g>
<!-- ContentContainerDirective&#45;&gt;ContentConductorModule -->
<g id="edge1" class="edge">
<title>ContentContainerDirective&#45;&gt;ContentConductorModule</title>
<path fill="none" stroke="#000000" d="M403.8405,-122.1061C403.8405,-122.1061 403.8405,-140.991 403.8405,-140.991"/>
<polygon fill="#000000" stroke="#000000" points="400.3405,-140.9909 403.8405,-150.991 407.3405,-140.991 400.3405,-140.9909"/>
</g>
<!-- ContentDirective -->
<g id="node2" class="node">
<title>ContentDirective</title>
<polygon fill="#ffffb3" stroke="#000000" points="382.416,-122 269.584,-122 269.584,-86 382.416,-86 382.416,-122"/>
<text text-anchor="middle" x="326" y="-99.8" font-family="Times,serif" font-size="14.00" fill="#000000">ContentDirective</text>
</g>
<!-- ContentDirective&#45;&gt;ContentConductorModule -->
<g id="edge2" class="edge">
<title>ContentDirective&#45;&gt;ContentConductorModule</title>
<path fill="none" stroke="#000000" d="M326,-122.1061C326,-122.1061 326,-140.991 326,-140.991"/>
<polygon fill="#000000" stroke="#000000" points="322.5001,-140.9909 326,-150.991 329.5001,-140.991 322.5001,-140.9909"/>
</g>
<!-- ContentContainerDirective  -->
<g id="node4" class="node">
<title>ContentContainerDirective </title>
<polygon fill="#fb8072" stroke="#000000" points="489.6228,-252 318.3772,-252 318.3772,-216 489.6228,-216 489.6228,-252"/>
<text text-anchor="middle" x="404" y="-229.8" font-family="Times,serif" font-size="14.00" fill="#000000">ContentContainerDirective </text>
</g>
<!-- ContentConductorModule&#45;&gt;ContentContainerDirective  -->
<g id="edge3" class="edge">
<title>ContentConductorModule&#45;&gt;ContentContainerDirective </title>
<path fill="none" stroke="#000000" stroke-dasharray="5,2" d="M362.9655,-187.1061C362.9655,-187.1061 362.9655,-205.991 362.9655,-205.991"/>
<polygon fill="#000000" stroke="#000000" points="359.4655,-205.9909 362.9655,-215.991 366.4655,-205.991 359.4655,-205.9909"/>
</g>
<!-- ContentDirective  -->
<g id="node5" class="node">
<title>ContentDirective </title>
<polygon fill="#fb8072" stroke="#000000" points="299.9152,-252 184.0848,-252 184.0848,-216 299.9152,-216 299.9152,-252"/>
<text text-anchor="middle" x="242" y="-229.8" font-family="Times,serif" font-size="14.00" fill="#000000">ContentDirective </text>
</g>
<!-- ContentConductorModule&#45;&gt;ContentDirective  -->
<g id="edge4" class="edge">
<title>ContentConductorModule&#45;&gt;ContentDirective </title>
<path fill="none" stroke="#000000" stroke-dasharray="5,2" d="M272.2327,-187.1061C272.2327,-187.1061 272.2327,-205.991 272.2327,-205.991"/>
<polygon fill="#000000" stroke="#000000" points="268.7327,-205.9909 272.2327,-215.991 275.7327,-205.991 268.7327,-205.9909"/>
</g>
<!-- ContentConductorService -->
<g id="node6" class="node">
<title>ContentConductorService</title>
<ellipse fill="#fdb462" stroke="#000000" cx="135" cy="-104" rx="111.1789" ry="18"/>
<text text-anchor="middle" x="135" y="-99.8" font-family="Times,serif" font-size="14.00" fill="#000000">ContentConductorService</text>
</g>
<!-- ContentConductorService&#45;&gt;ContentConductorModule -->
<g id="edge5" class="edge">
<title>ContentConductorService&#45;&gt;ContentConductorModule</title>
<path fill="none" stroke="#000000" d="M246.7087,-104C253.7393,-104 258.0659,-104 258.0659,-104 258.0659,-104 258.0659,-140.8939 258.0659,-140.8939"/>
<polygon fill="#000000" stroke="#000000" points="254.566,-140.8938 258.0659,-150.8939 261.566,-140.8939 254.566,-140.8938"/>
</g>
</g>
</svg>
